<?xml version="1.0" encoding="utf-8"?>
<!-- Generator: Adobe Illustrator 23.0.1, SVG Export Plug-In . SVG Version: 6.00 Build 0)  -->
<svg version="1.1" id="Layer_1" xmlns="http://www.w3.org/2000/svg" x="0px" y="0px"
     viewBox="0 0 372 68" style="enable-background:new 0 0 372 68;" xml:space="preserve">
<style type="text/css">
	.st0{display:none;fill:#132438;}
	.st1{fill:#0D91CE;}
	.st2{fill:#FFFFFF;}
</style>
<g id="Logo_Inverted">
	<rect x="-52.72" y="-122" class="st0" width="477.62" height="312"/>
	<g>
		<path class="st1" d="M122.15,26.23c-2.36-2.44-5.74-3.39-9.06-3.39h-12.27v33.23h7.38V44.99h5.24c4.38,0,8.74-2.27,10.59-6.34
			C125.81,34.73,125.18,29.37,122.15,26.23C121.19,25.23,123.11,27.23,122.15,26.23z M108.21,29.6h4.44c1.19,0,2.38,0.29,3.22,1.17
			c0.81,0.85,1.18,1.99,1.2,3.15c0.02,1.19-0.33,2.32-1.17,3.19c-0.84,0.86-2.03,1.1-3.2,1.1h-4.49V29.6z"/>
		<path class="st1" d="M143.77,32.45c-1.5-0.22-3.16-0.16-4.59,0.38c-0.66,0.25-1.21,0.63-1.79,1.03c-0.68,0.46-1.41,0.91-1.94,1.54
			l0.04-2.72h-6.97v23.38h7.38V44.83c0-1.88,0.57-3.72,2.21-4.79c1.64-1.07,3.94-1.12,5.76-0.54l0.19,0.06l1.21-6.7l-0.14-0.05
			C144.69,32.64,144.23,32.52,143.77,32.45C143.31,32.38,144.23,32.52,143.77,32.45z"/>
		<path class="st1" d="M168.37,35.71c-3.68-3.79-9.78-4.73-14.57-2.63c-4.98,2.18-7.78,7.39-7.35,12.74
			c0.42,5.29,4.13,9.86,9.3,11.19c5.13,1.31,10.82-0.47,13.89-4.88C173.08,47.17,172.59,40.05,168.37,35.71
			C167.26,34.56,169.48,36.85,168.37,35.71z M161.51,50.3c-2.07,1.04-4.85,0.5-6.31-1.3c-1.6-1.97-1.9-4.86-0.89-7.16
			c0.97-2.21,3.12-3.44,5.52-3.19c2.4,0.25,4.13,2.14,4.62,4.43C165.01,45.78,164.12,48.99,161.51,50.3z"/>
		<path class="st1" d="M183.54,40.45c1.17-1.37,2.83-1.95,4.6-1.81c1.68,0.13,3.09,0.96,4.2,2.22l0.13,0.15l4.6-4.97l-0.11-0.12
			c-2.74-2.99-6.81-4.17-10.78-3.87c-4.07,0.31-7.81,2.52-9.9,6.05c-2.16,3.64-2.37,8.33-0.65,12.19c1.65,3.68,4.98,6.19,8.94,6.9
			c4.41,0.79,9.26-0.32,12.34-3.72l0.11-0.12l-4.45-4.98l-0.13,0.15c-2.09,2.37-5.88,3.14-8.35,0.9
			C181.66,47.22,181.42,42.94,183.54,40.45C184.01,39.9,183.08,41,183.54,40.45z"/>
		<path class="st1" d="M216.51,45.63c0,0.63-0.32,1.23-0.53,1.8c-0.2,0.55-0.48,1.02-0.86,1.47c-0.81,0.98-1.95,1.61-3.23,1.68
			c-1.06,0.06-2.2-0.16-2.95-0.96c-0.79-0.83-1.05-2.03-1.05-3.15v-13.8h-8v14.85c0,3.65,1.55,7.39,5.08,8.9
			c1.82,0.78,3.97,0.98,5.92,0.63c2.19-0.4,3.8-1.56,5.32-3.15l0.03,2.15h7.66V32.68h-7.38V45.63z"/>
		<path class="st1" d="M244.5,32.45c-3.11-0.46-6.17,0.56-8.23,3l-0.06-2.77h-6.78v23.38h7.38V44.83c0-1.89,0.46-3.7,2.11-4.79
			c1.62-1.08,3.89-1.11,5.7-0.54l0.18,0.06l1.2-6.7l-0.14-0.05C245.42,32.64,244.96,32.52,244.5,32.45
			C244.04,32.38,244.96,32.52,244.5,32.45z"/>
		<path class="st1" d="M268.31,35.84c-2.68-3.22-6.94-4.31-10.98-3.67c-3.91,0.62-7.26,3.19-8.88,6.8
			c-1.66,3.71-1.63,8.34,0.19,11.99c1.82,3.64,5.5,5.81,9.46,6.32c2.31,0.3,4.69,0.15,6.93-0.46c1.07-0.29,2.12-0.66,3.12-1.15
			c0.93-0.46,1.72-1.09,2.59-1.64l0.16-0.1l-3.16-4.87l-0.16,0.12c-2.18,1.63-4.91,2.38-7.62,2.19c-2.52-0.18-5.16-1.8-5.34-4.55
			h16.65v-1.2C271.28,42.2,270.56,38.55,268.31,35.84C267.31,34.64,269.31,37.04,268.31,35.84z M255.85,39.41
			c1.33-1.39,3.6-1.82,5.39-1.17c0.86,0.31,1.61,0.9,2.16,1.63c0.26,0.34,0.45,0.71,0.56,1.13c0.02,0.07,0.16,0.92,0.19,0.92h-9.53
			c0.02,0,0.23-0.99,0.25-1.07C255.08,40.29,255.45,39.83,255.85,39.41C256.25,38.99,255.45,39.82,255.85,39.41z"/>
		<path class="st2" d="M297.86,39.25c-1.57-1.4-3.48-2.27-5.47-2.9c-1.88-0.59-3.82-0.89-5.61-1.75c-1.34-0.64-2.85-1.85-2.33-3.54
			c0.62-2.01,3.32-2.54,5.11-2.33c2.28,0.27,4.26,1.47,6,2.9l0.13,0.11l4.58-5.06l-0.12-0.12c-1.66-1.67-3.53-2.91-5.77-3.66
			c-2.33-0.78-4.77-1.01-7.21-0.85c-4.62,0.32-9.16,2.72-10.51,7.42c-0.66,2.31-0.59,4.91,0.5,7.08c1.07,2.13,2.97,3.68,5.11,4.66
			c2.18,1.01,4.6,1.34,6.84,2.21c1.62,0.63,3.45,1.51,3.44,3.51c-0.01,2.94-3.73,3.69-6,3.38c-2.73-0.38-5.19-1.96-7.04-3.95
			l-0.13-0.14l-5.1,5.52l0.11,0.12c3.89,4.3,10.03,6.16,15.71,5.49c5.28-0.63,10.65-4.29,10.9-10.03
			C301.14,44.29,300.16,41.3,297.86,39.25C296.92,38.41,298.81,40.09,297.86,39.25z"/>
		<path class="st2" d="M319.91,32.25c-1.31,0-2.61,0.24-3.84,0.7c-1.06,0.39-2.21,0.92-2.94,1.82V22.84h-7.38v33.23h7.38V43.83
			c0-2.58,1.8-4.86,4.46-4.97c2.46-0.09,4.16,1.74,4.16,4.16v13.03h6.77V41.93c0-2.41-0.31-5.07-1.97-6.94
			C324.85,33.08,322.42,32.25,319.91,32.25z"/>
		<path class="st2" d="M370.19,40.01c-0.99-3.31-3.37-6.2-6.75-7.22c-3.31-1-7.53-0.3-9.92,2.36c0.01-0.8,0.13-1.68,0-2.47h-7.16
			v33.85h8v-9.99c0,0.3,1.69,0.58,1.95,0.63c0.88,0.18,1.79,0.22,2.68,0.19c1.95-0.07,3.94-0.59,5.66-1.52
			c3.3-1.8,5.49-5.14,6.03-8.83C371.03,44.67,370.86,42.27,370.19,40.01C369.75,38.54,370.63,41.47,370.19,40.01z M363.28,44.68
			c0,2.21-0.79,4.58-2.8,5.74c-1.01,0.58-2.17,0.63-3.3,0.55c-0.92-0.06-2.11-0.17-2.82-0.84v-6.15c0-0.73-0.14-1.38,0.1-2.09
			c0.22-0.65,0.48-1.22,0.95-1.72c0.92-0.97,2.18-1.37,3.5-1.3C362.01,39.03,363.28,41.92,363.28,44.68z"/>
		<rect x="333.44" y="32.68" class="st2" width="7.38" height="23.38"/>
		<path class="st2" d="M337.31,22.2c-3.57,0-5.25,4.59-2.54,6.9c2.76,2.35,7.07-0.18,6.38-3.73
			C340.81,23.55,339.16,22.2,337.31,22.2z"/>
	</g>
	<path class="st1" d="M43.63,1.43c-10.7,0-20.69,5.3-26.72,14.19c-0.93,1.37-1.02,3.23-0.24,4.7c0.8,1.51,2.25,2.52,3.88,2.52h0.31
		c1.41,0,2.78-0.87,3.66-2.15c4.35-6.31,11.49-10.12,19.11-10.12c7.61,0,14.76,3.85,19.11,10.17c0.87,1.27,2.24,2.1,3.66,2.1h0.31
		c1.63,0,3.08-1.01,3.88-2.52c0.78-1.47,0.69-3.23-0.24-4.6C64.31,6.8,54.32,1.43,43.63,1.43z"/>
	<g>
		<path class="st2" d="M41.12,66.23l-23.18-8.58c-2-0.7-3.33-2.59-3.33-4.71v-8.61c0-2.76,2.23-4.99,4.99-4.99h10.45
			c0.95,0,1.72-0.77,1.72-1.72l0,0c0-0.95-0.77-1.72-1.72-1.72H5.09c-2.33,0-4.21-1.88-4.21-4.21l0,0c0-2.33,1.88-4.21,4.21-4.21
			h30.72c2.76,0,4.99,2.23,4.99,4.99v9.7c0,2.73-2.2,4.96-4.93,4.99l-11.13,0.13c-0.95,0.01-1.72,0.79-1.72,1.74l0,0
			c0,0.74,0.46,1.39,1.15,1.64l17.75,6.35c1.09,0.39,2.28,0.39,3.36,0l17.75-6.35c0.69-0.25,1.15-0.9,1.15-1.64l0,0
			c0-0.95-0.77-1.73-1.72-1.74l-11.13-0.13c-2.73-0.03-4.93-2.26-4.93-4.99v-9.7c0-2.76,2.23-4.99,4.99-4.99h30.72
			c2.33,0,4.21,1.88,4.21,4.21l0,0c0,2.32-1.88,4.21-4.21,4.21H57.17c-0.95,0-1.72,0.77-1.72,1.72l0,0c0,0.95,0.77,1.72,1.72,1.72
			h10.45c2.76,0,4.99,2.23,4.99,4.99v8.61c0,2.12-1.34,4-3.33,4.71l-23.18,8.58C44.48,66.8,42.73,66.8,41.12,66.23z"/>
	</g>
</g>
</svg>
